#!OML:ASF F:\VICON\USERDATA\INSTALL\rory3\rory3.ASF
:FULLY-SPECIFIED
:DEGREES
148
root 3.06705 16.7442 -0.0348969 14.6113 5.71531 11.1479
lowerback -6.45845 1.28534 0.176376
upperback -1.99218 1.88629 -7.47776
thorax 1.82215 0.959838 -7.78949
lowerneck -1.90487 14.677 5.07454
upperneck 47.0572 24.6862 -2.39889
head 19.7794 10.7175 2.05511
rclavicle -4.67144e-015 1.12115e-013
rhumerus -36.4372 5.80339 -94.2051
rradius 42.4488
rwrist -35.7953
rhand -9.21224 -49.0946
rfingers 7.12502
rthumb 16.7421 -78.3927
lclavicle -4.67144e-015 1.12115e-013
lhumerus -28.4834 -20.3487 82.5444
lradius 41.7631
lwrist 72.6392
lhand -39.3987 -12.0645
lfingers 7.12502
lthumb -12.3881 17.5485
rfemur -48.9592 23.4865 -6.056
rtibia 73.61
rfoot 3.94603 8.40288
rtoes -37.621
lfemur -31.042 -6.80666 -36.9351
ltibia 38.3273
lfoot -16.9732 10.5104
ltoes 3.30505
149
root 3.06863 16.7388 -0.0480904 15.0559 5.09372 10.7052
lowerback -6.73895 1.50348 0.470711
upperback -2.25652 2.15182 -7.39411
thorax 1.74737 1.08744 -7.84408
lowerneck -1.91842 14.71 5.06911
upperneck 47.201 24.7632 -2.36015
head 19.8808 10.74 2.10016
rclavicle -1.47598e-014 1.55052e-014
rhumerus -36.4495 5.93275 -94.2605
rradius 42.3076
rwrist -35.8472
rhand -9.12886 -48.9473
rfingers 7.12502
rthumb 16.8224 -78.2386
lclavicle -1.47598e-014 1.55052e-014
lhumerus -28.6103 -20.2404 82.5523
lradius 41.848
lwrist 72.6694
lhand -39.4076 -11.9997
lfingers 7.12502
lthumb -12.3967 17.6127
rfemur -50.0795 23.7844 -6.19193
rtibia 73.6505
rfoot 4.33137 8.49364
rtoes -37.0354
lfemur -31.8496 -6.43831 -36.5433
ltibia 38.4203
lfoot -16.9594 10.5872
ltoes 3.68182
150
root 3.0675 16.7339 -0.0561069 15.1711 5.12006 10.4605
lowerback -6.79289 1.50098 0.681643
upperback -2.27412 2.13308 -7.31061
thorax 1.76072 1.07776 -7.8773
lowerneck -2.08205 14.7325 4.95682
upperneck 47.3111 24.8123 -2.28698
head 19.963 10.7321 2.1815
rclavicle -6.55989e-015 4.69132e-014
rhumerus -36.3501 5.99506 -94.2549
rradius 42.3288
rwrist -35.9205
rhand -9.06945 -49.5121
rfingers 7.12502
rthumb 16.8796 -78.7985
lclavicle -6.55989e-015 4.69132e-014
lhumerus -28.5249 -20.2037 82.5198
lradius 41.8684
lwrist 72.7305
lhand -39.2647 -11.9414
lfingers 7.12502
lthumb -12.2589 17.6793
rfemur -50.3316 23.7605 -6.00327
rtibia 73.6692
rfoot 4.43271 8.52906
rtoes -37.1385
lfemur -32.0978 -6.44801 -36.2571
ltibia 38.4692
lfoot -16.9044 10.5834
ltoes 3.69228
151
root 3.06617 16.7284 -0.0580527 15.182 5.12287 10.5602
lowerback -6.77925 1.50576 0.555917
upperback -2.25074 2.14965 -7.34234
thorax 1.77661 1.08692 -7.83686
lowerneck -2.29482 14.7508 4.91662
upperneck 47.6745 24.8105 -1.99783
head 20.192 10.722 2.36627
rclavicle 5.76476e-015 -2.18663e-014
rhumerus -36.3226 5.8646 -94.2057
rradius 42.403
rwrist -35.9293
rhand -9.17406 -49.8148
rfingers 7.12502
rthumb 16.7789 -79.1098
lclavicle 5.76476e-015 -2.18663e-014
lhumerus -28.5443 -20.2249 82.5106
lradius 41.9923
lwrist 72.7353
lhand -39.2126 -11.7447
lfingers 7.12502
lthumb -12.2087 17.879
rfemur -50.3346 23.712 -6.08602
rtibia 73.7124
rfoot 4.23221 8.59499
rtoes -37.8076
lfemur -32.1688 -6.43439 -36.3737
ltibia 38.6201
lfoot -16.9743 10.614
ltoes 3.61264
152
root 3.06885 16.7325 -0.0570333 15.2294 5.12199 10.5992
lowerback -6.83886 1.52421 0.530846
upperback -2.25325 2.17888 -7.36777
thorax 1.81146 1.10243 -7.84621
lowerneck -2.7402 14.85 4.77564
upperneck 48.3129 24.8902 -1.40519
head 20.5873 10.7305 2.76527
rclavicle -3.926e-015 2.34566e-014
rhumerus -36.2638 5.70752 -94.1495
rradius 42.356
rwrist -35.8594
rhand -9.20464 -49.9832
rfingers 7.12502
rthumb 16.7494 -79.2807
lclavicle -3.926e-015 2.34566e-014
lhumerus -28.6167 -20.2241 82.5068
lradius 42.0879
lwrist 72.7397
lhand -39.4024 -11.5638
lfingers 7.12502
lthumb -12.3917 18.049
rfemur -50.3403 23.7179 -6.1426
rtibia 73.6947
rfoot 4.20642 8.43155
rtoes -37.6586
lfemur -32.2186 -6.42128 -36.4302
ltibia 38.6679
lfoot -17.0434 10.5899
ltoes 3.70958
153
root 3.07385 16.7394 -0.0549105 15.2542 5.13451 10.4103
lowerback -6.84772 1.5258 0.735867
upperback -2.26653 2.16552 -7.32033
thorax 1.80614 1.0954 -7.91562
lowerneck -2.31044 14.7562 4.96147
upperneck 47.6194 24.8035 -2.0139
head 20.1688 10.7266 2.35042
rclavicle -1.53064e-014 6.44062e-014
rhumerus -36.1436 5.73013 -94.139
rradius 42.2842
rwrist -35.8038
rhand -10.0622 -49.3896
rfingers 7.12502
rthumb 15.9238 -78.755
lclavicle -1.53064e-014 6.44062e-014
lhumerus -28.6145 -20.1272 82.488
lradius 41.9819
lwrist 72.6894
lhand -39.4346 -12.0005
lfingers 7.12502
lthumb -12.4227 17.6103
rfemur -50.3361 23.799 -5.96039
rtibia 73.6443
rfoot 4.16467 8.33787
rtoes -37.9063
lfemur -32.2581 -6.40154 -36.2341
ltibia 38.6662
lfoot -17.0953 10.5154
ltoes 3.9582
154
root 3.07745 16.7416 -0.0543748 15.2339 5.17216 10.2748
lowerback -6.78118 1.56762 0.91675
upperback -2.32258 2.20544 -7.34847
thorax 1.72398 1.11319 -8.05033
lowerneck -2.04934 14.6705 5.22869
upperneck 47.3815 24.6555 -2.22031
head 20.0289 10.7171 2.15325
rclavicle -1.13804e-014 -1.63003e-014
rhumerus -36.2202 5.61572 -94.2158
rradius 42.1952
rwrist -35.7302
rhand -11.1552 -48.1097
rfingers 7.12502
rthumb 14.871 -77.556
lclavicle -1.13804e-014 -1.63003e-014
lhumerus -28.7258 -20.2267 82.4874
lradius 41.8735
lwrist 72.6464
lhand -38.8841 -12.971
lfingers 7.12502
lthumb -11.8919 16.6712
rfemur -50.2964 23.8377 -5.80539
rtibia 73.6121
rfoot 4.06276 8.42217
rtoes -38.6628
lfemur -32.2084 -6.41136 -36.0892
ltibia 38.5931
lfoot -17.1108 10.4601
ltoes 4.50935
155
root 3.07926 16.7425 -0.0556374 15.2354 5.16942 10.2825
lowerback -6.84422 1.61934 0.931091
upperback -2.3313 2.27731 -7.40608
thorax 1.76351 1.15053 -8.11396
lowerneck -1.86791 14.5973 5.46974
upperneck 47.3337 24.5341 -2.31659
head 20.0134 10.7092 2.03736
rclavicle -9.0944e-015 7.27552e-014
rhumerus -36.3054 5.43645 -94.2486
rradius 42.1479
rwrist -35.6555
rhand -11.2253 -47.7515
rfingers 7.12502
rthumb 14.8035 -77.2028
lclavicle -9.0944e-015 7.27552e-014
lhumerus -28.8184 -20.3411 82.4922
lradius 41.8866
lwrist 72.5779
lhand -38.671 -13.2443
lfingers 7.12502
lthumb -11.6864 16.4097
rfemur -50.3583 23.8403 -5.84653
rtibia 73.6178
rfoot 4.17897 8.42625
rtoes -38.4148
lfemur -32.1537 -6.42884 -36.1023
ltibia 38.4757
lfoot -17.0372 10.4591
ltoes 4.94182
